<svg width="108" height="42" viewBox="0 0 108 42" fill="none" xmlns="http://www.w3.org/2000/svg">
<path fill-rule="evenodd" clip-rule="evenodd" d="M9.33508 12.1486C9.21386 10.7538 9.2799 8.79498 10.1351 7.82288L11.118 6.2866L11.7938 5.36483L11.4866 4.56596L12.101 3.76709L12.961 3.88999L13.3911 4.56596L16.1556 4.19725L18.06 4.3816H18.7358L20.0259 4.19725H21.6846L23.0975 4.68886L24.019 5.36483L24.6948 6.5324V7.63853L24.8177 8.8061L24.3262 10.4038C24.1654 10.5566 23.9415 10.7732 23.7288 10.9858C22.8006 10.3702 21.3141 10.0589 20.5788 9.97339C20.6771 9.72759 21.6846 9.42033 22.176 9.29743C21.9794 8.75666 21.1112 9.07211 20.7016 9.29743C21.2914 8.90414 21.275 8.1913 21.1931 7.88405C21.1439 8.3265 18.9201 9.01066 17.8143 9.29743H17.3842C16.6962 9.73988 12.4695 10.7927 10.4422 11.2639C10.0576 11.4414 9.65374 11.806 9.33508 12.1486Z" fill="#FFB600"/>
<path fill-rule="evenodd" clip-rule="evenodd" d="M21.8665 9.37984C21.9808 9.34696 22.0867 9.31867 22.1757 9.29642C22.1567 9.24406 22.1313 9.19973 22.1007 9.16256C23.4814 7.76259 23.1562 5.74672 22.6055 4.56444L23.3427 4.93314L24.3871 6.34653L24.7557 7.45265V9.41909C24.469 9.9107 23.8833 10.9185 23.8342 11.0168C23.8304 11.0244 23.8248 11.0342 23.8176 11.0461C23.0015 10.4635 21.6807 10.1389 20.863 10.0115C21.2585 9.82779 21.5903 9.6146 21.8665 9.37984ZM11.2216 11.0786C11.5379 10.6595 12.0409 10.0366 12.3461 9.6649L14.1277 7.69846L17.1994 5.1175L20.0253 4.13428C16.0767 6.43833 14.6065 8.90308 14.2321 10.3181C13.2089 10.5922 12.1139 10.8647 11.2216 11.0786Z" fill="#C37F23"/>
<path d="M10.4421 9.6045L11.1178 11.0179L11.855 10.1576L13.6981 8.12966L18.2441 4.56549L18.0598 4.44258L17.3226 4.19678H15.9711L13.8824 4.56549L11.6093 5.61016L10.4421 7.3308V9.6045Z" fill="#FFFEFF"/>
<path fill-rule="evenodd" clip-rule="evenodd" d="M23.5064 10.8482C24.0982 10.2693 24.8156 9.13869 24.5721 7.63645C24.4082 6.12064 23.0117 3.40859 18.7359 4.68678C17.864 4.96429 15.2393 6.61527 11.5522 10.9985C11.302 11.0592 11.0639 11.1162 10.8431 11.1684C10.2287 10.4656 10.0739 8.97827 10.0739 8.3128C9.53719 9.7582 9.48313 11.1602 9.54026 11.9361C9.37942 12.094 9.23213 12.2563 9.10861 12.4026C9.03249 10.8798 9.18135 8.38787 10.2581 7.26772C10.5243 6.73514 11.1673 5.63312 11.6096 5.48563C11.3434 5.19886 11.0198 4.41638 11.8553 3.58064C12.3263 3.43725 13.3297 3.384 13.5755 4.31806C14.8041 4.0108 17.5195 3.58063 18.5516 4.31806C19.6164 3.99032 22.1024 3.62982 23.5277 4.80968C24.5994 5.78241 26.1327 8.37892 23.9895 11.1784C23.8476 11.0588 23.6841 10.9488 23.5064 10.8482ZM11.9168 5.79315C9.9509 7.21882 10.6062 9.66458 11.1796 10.7093C13.4895 7.56299 16.6062 5.30155 17.8758 4.56412C14.7796 3.92503 12.613 5.11718 11.9168 5.79315ZM13.1988 4.56866C13.1462 4.56866 12.3444 4.93443 11.9501 5.11731C11.477 4.72697 11.8844 4.26377 12.1473 4.08097C12.9359 3.77616 13.2645 4.56866 13.1988 4.56866Z" fill="#1D1D1D"/>
<path d="M29.4234 37.0525C28.664 36.829 21.9593 36.3106 21.9593 36.3106C21.7187 35.9842 22.0732 34.9866 22.1534 34.5973C23.4209 34.3425 24.6688 34.4476 25.6778 33.9204C26.0504 34.0374 26.2003 34.0186 26.785 34.2456C29.3485 35.251 29.4252 37.0542 29.4252 37.0542L29.4234 37.0525Z" fill="#286AFF"/>
<path d="M5.46808 37.114C6.2275 36.8906 12.9322 36.3721 12.9322 36.3721C13.1728 36.0457 12.8183 35.0481 12.738 34.6589C11.4706 34.404 10.2227 34.5091 9.21369 33.9819C8.84111 34.0989 8.69116 34.0801 8.10644 34.3071C5.54295 35.3125 5.4663 37.1157 5.4663 37.1157L5.46808 37.114Z" fill="#286AFF"/>
<path d="M17.2407 27.5807C13.06 27.7569 9.21585 31.03 7.81635 32.6446C8.85257 34.4059 14.531 34.2298 17.2407 33.9216C24.0655 34.5909 26.397 33.3491 26.7096 32.6446C23.5295 28.523 19.0719 27.5514 17.2407 27.5807Z" fill="url(#paint0_linear_36_128437)"/>
<path d="M0 38.4982C9.85976 35.2766 22.6445 35.1878 32.7099 37.5926C33.6264 37.8155 34.5535 38.0576 35.4558 38.3345C35.5852 38.3728 35.8706 38.4581 36 38.4999L35.7164 38.4668C35.5533 38.4459 35.0445 38.3815 34.8708 38.3588C23.3163 36.7829 11.5385 36.7463 0 38.4999V38.4982Z" fill="#5287FF"/>
<path fill-rule="evenodd" clip-rule="evenodd" d="M7.55469 32.692C10.3069 28.9558 15.1724 27.5301 17.2612 27.2843C21.9793 27.4318 25.698 30.787 26.9677 32.4462L26.7833 33.1836L29.1178 30.8485C29.1178 30.6027 28.954 29.3941 28.8721 28.8206L29.2407 29.3122C29.8796 30.1971 30.6946 29.3532 31.0223 28.8206C31.2188 27.9848 30.1622 25.3998 29.6093 24.2117C29.6093 23.9659 29.3636 22.7574 29.2407 22.1838C29.7813 22.5771 30.0393 22.1429 30.1008 21.8766C29.9533 22.3682 29.384 21.5488 29.1178 21.0777C28.6755 18.6197 27.2543 16.0387 26.599 15.0555C26.6973 14.6622 27.582 15.2193 28.012 15.5471C27.9712 15.1386 27.1075 14.5038 26.4642 14.1011C26.7983 14.2022 27.1579 14.1 27.3363 14.0108C26.3042 14.0108 24.7765 12.3721 24.1417 11.5527C23.3554 10.7662 21.2339 10.2418 20.2714 10.0779C20.1731 9.83211 21.2953 9.40195 21.8687 9.2176C21.6229 9.16844 20.6605 9.44292 20.21 9.5863C20.5049 9.43882 20.9472 8.62357 21.1315 8.23438C20.8857 8.72599 18.4898 9.54534 17.3226 9.89356C17.4209 9.8444 17.4864 9.5863 17.5069 9.4634C17.0154 9.95501 12.6332 11.0202 10.5035 11.4913C10.2578 11.5405 9.29529 12.4131 8.84478 12.8432C7.61611 14.8588 6.08028 16.9605 5.46594 17.7593C5.76082 17.9068 6.44888 17.1653 6.75604 16.7761C6.75604 17.366 5.65024 18.2919 5.09734 18.6811C5.53966 18.7794 6.14171 18.2714 6.38744 18.0051C6.38744 18.3984 5.24069 22.6345 4.66731 24.7033C4.32325 24.9983 3.74582 26.9566 3.5001 27.8988C3.20522 28.5871 3.62297 29.1278 3.8687 29.3122C4.31103 29.9021 4.87212 29.6809 5.09738 29.4965C4.92729 29.1033 5.47701 28.5133 5.77312 28.2675C5.3308 29.0541 5.26118 30.2749 5.28165 30.787C5.96971 32.0652 7.32944 33.0402 7.92329 33.368L7.55469 32.692ZM12.5924 20.605C14.0852 20.605 15.2954 19.3119 15.2954 17.7168C15.2954 16.1217 14.0852 14.8286 12.5924 14.8286C11.0995 14.8286 9.88928 16.1217 9.88928 17.7168C9.88928 19.3119 11.0995 20.605 12.5924 20.605ZM24.5103 17.3478C24.5103 18.9429 23.3001 20.236 21.8073 20.236C20.3144 20.236 19.1042 18.9429 19.1042 17.3478C19.1042 15.7527 20.3144 14.4596 21.8073 14.4596C23.3001 14.4596 24.5103 15.7527 24.5103 17.3478ZM14.4966 21.8956C14.8038 21.4859 15.627 20.5436 16.4625 20.052C16.6468 19.8677 17.1506 19.6096 17.6912 20.052C18.2646 20.4208 19.4605 21.232 19.657 21.5269C19.739 21.7113 19.8536 22.1414 19.657 22.3872C19.0837 23.1247 17.8632 24.6241 17.5683 24.7224C17.4864 24.8043 17.2243 24.9313 16.8311 24.7839C16.1758 24.1898 14.8038 22.9403 14.5581 22.6945C14.5171 22.5511 14.4475 22.1905 14.4966 21.8956Z" fill="#286AFF"/>
<path d="M15.188 18.0279C15.5334 15.8376 12.9471 14.155 11.149 15.528C9.33347 16.8888 9.76128 19.9018 12.1653 20.1968C13.5148 20.3802 14.9842 19.4215 15.188 18.0279Z" fill="white"/>
<path d="M24.4144 17.6783C24.7598 15.488 22.1735 13.8054 20.3754 15.1784C18.5599 16.5392 18.9877 19.5522 21.3917 19.8472C22.7411 20.0306 24.2106 19.0719 24.4144 17.6783Z" fill="white"/>
<ellipse cx="12.6536" cy="18.0849" rx="1.90444" ry="2.1508" fill="#1D1D1D"/>
<ellipse cx="21.7458" cy="17.7148" rx="1.90444" ry="2.1508" fill="#1D1D1D"/>
<path d="M18.449 22.3913C18.0334 22.5826 17.6268 22.8469 17.1578 22.8697C16.9128 22.8786 16.6726 22.8157 16.4479 22.7302C15.8549 22.5151 15.2738 22.2846 14.7147 21.9863C14.6879 22.2109 14.7465 22.4515 14.8988 22.6293C15.3003 23.0806 15.734 23.5152 16.1738 23.933C16.3574 24.0898 16.6187 24.4148 16.832 24.5058C17.0724 24.6193 17.3614 24.6127 17.5935 24.4874C17.8354 24.3542 18.0058 24.0786 18.2049 23.8786C18.6119 23.4241 19.0271 22.9775 19.4047 22.5018C19.5755 22.2931 19.6235 22.0129 19.5653 21.7622C19.2052 22.0011 18.8313 22.2043 18.4505 22.3937L18.449 22.3913Z" fill="#FFC700"/>
<path d="M16.5704 22.3461C16.758 22.4006 16.9461 22.4612 17.1423 22.4448C17.5563 22.4232 17.9251 22.1905 18.3227 22.084C18.7271 21.9488 19.136 21.8288 19.5612 21.743C19.5198 21.5753 19.429 21.4202 19.2918 21.3067C18.9339 21.048 18.5237 20.8133 18.161 20.5494C17.9576 20.4162 17.6274 20.1519 17.4324 20.043C17.1442 19.8919 16.7775 19.9449 16.5356 20.1631L16.3612 20.3102C16.0242 20.597 15.6526 20.9101 15.3131 21.1903C15.0915 21.3829 14.8344 21.5286 14.7488 21.8223C14.735 21.8636 14.7265 21.9081 14.718 21.9527C15.3493 22.0311 15.9581 22.179 16.5685 22.3456L16.5704 22.3461Z" fill="#FFC700"/>
<path d="M19.5985 21.7402C19.5879 21.7417 19.575 21.7446 19.5645 21.7461C19.5656 21.7503 19.5666 21.7545 19.5672 21.7606C19.5771 21.753 19.5885 21.7478 19.5985 21.7402Z" fill="#FFC700"/>
<path d="M14.7201 21.9568C14.6967 21.9532 14.6732 21.9496 14.6517 21.9465C14.6517 21.9465 14.6508 21.9503 14.6504 21.9521C14.6721 21.9632 14.6937 21.9742 14.7173 21.9857C14.7195 21.9764 14.7198 21.9666 14.7201 21.9568Z" fill="#FFC700"/>
<path d="M46.8466 27.1822L45.0117 32.9712L39.8308 32.3789L46.3226 15.4565H51.4426L58.3367 31.5633L52.6515 32.6294L50.9186 27.1822H46.8466ZM50.012 24.3547L48.862 20.7873L47.714 24.4285L50.012 24.3547Z" fill="white"/>
<path d="M73.9715 15.2065L73.8105 20.0615L64.7794 19.943L64.9403 22.7861L72.4192 22.4307L72.2582 26.2214L65.1012 26.4583L65.2621 32.8532L59.94 32.9717L59.2943 15.5619L73.9695 15.2065H73.9715Z" fill="white"/>
<path d="M75.6357 24.8423L74.9292 16.4335L80.5732 16.1966L80.3102 25.7899C81.5996 27.2115 82.6554 27.9222 83.4757 27.9222C84.9534 27.9222 85.6932 25.4151 85.6932 20.401C85.6932 19.0785 85.6402 17.554 85.5323 15.8257L90.9761 15.9597C91.1096 23.5004 90.4796 28.365 89.0804 30.5575C88.058 32.1654 86.486 32.9713 84.3627 32.9713C83.5973 32.9713 82.7633 32.8684 81.8625 32.6606C78.073 31.7926 75.9968 29.1864 75.6337 24.8442L75.6357 24.8423Z" fill="white"/>
<path d="M97.9583 16.9794L102.272 24.6638C101.922 23.1646 101.748 21.1353 101.748 18.5796C101.748 17.8786 101.762 17.1445 101.789 16.3735L107.272 16.5075C107.056 18.4417 106.95 20.4361 106.95 22.4888C106.95 25.7863 107.225 29.2352 107.776 32.8376L102.454 32.9716L96.9516 24.5473C96.9379 24.9415 96.932 25.3416 96.932 25.7474C96.932 27.8409 97.1596 30.1246 97.6169 32.6026H92.2947C92.0671 28.7536 91.9513 24.9299 91.9513 21.1294C91.9513 19.7079 91.965 18.2864 91.9925 16.8649L97.9603 16.9833L97.9583 16.9794Z" fill="white"/>
<defs>
<linearGradient id="paint0_linear_36_128437" x1="17.263" y1="27.5801" x2="17.263" y2="34.1193" gradientUnits="userSpaceOnUse">
<stop stop-color="#90B0FE"/>
<stop offset="1" stop-color="#C2D5FE"/>
</linearGradient>
</defs>
</svg>
